<mxfile host="app.diagrams.net" agent="Mozilla/5.0 (Macintosh; Intel Mac OS X 10_15_7) AppleWebKit/605.1.15 (KHTML, like Gecko) Version/18.5 Safari/605.1.15" version="28.0.9">
  <diagram name="第 1 页" id="BwdPdjhs5yrIKyXOkwDm">
    <mxGraphModel dx="1803" dy="671" grid="1" gridSize="10" guides="1" tooltips="1" connect="1" arrows="1" fold="1" page="1" pageScale="1" pageWidth="827" pageHeight="1169" math="0" shadow="0">
      <root>
        <mxCell id="0" />
        <mxCell id="1" parent="0" />
        <mxCell id="_F2TY-6Kr6G5kByo4Wem-21" value="" style="edgeStyle=orthogonalEdgeStyle;rounded=0;orthogonalLoop=1;jettySize=auto;html=1;" edge="1" parent="1" source="_F2TY-6Kr6G5kByo4Wem-7" target="_F2TY-6Kr6G5kByo4Wem-9">
          <mxGeometry relative="1" as="geometry" />
        </mxCell>
        <mxCell id="_F2TY-6Kr6G5kByo4Wem-7" value="4" style="ellipse;whiteSpace=wrap;html=1;aspect=fixed;" vertex="1" parent="1">
          <mxGeometry x="120" y="200" width="40" height="40" as="geometry" />
        </mxCell>
        <mxCell id="_F2TY-6Kr6G5kByo4Wem-17" value="" style="edgeStyle=orthogonalEdgeStyle;rounded=0;orthogonalLoop=1;jettySize=auto;html=1;" edge="1" parent="1" source="_F2TY-6Kr6G5kByo4Wem-8" target="_F2TY-6Kr6G5kByo4Wem-10">
          <mxGeometry relative="1" as="geometry" />
        </mxCell>
        <mxCell id="_F2TY-6Kr6G5kByo4Wem-8" value="5" style="ellipse;whiteSpace=wrap;html=1;aspect=fixed;" vertex="1" parent="1">
          <mxGeometry x="40" y="280" width="40" height="40" as="geometry" />
        </mxCell>
        <mxCell id="_F2TY-6Kr6G5kByo4Wem-20" value="" style="edgeStyle=orthogonalEdgeStyle;rounded=0;orthogonalLoop=1;jettySize=auto;html=1;" edge="1" parent="1" source="_F2TY-6Kr6G5kByo4Wem-9" target="_F2TY-6Kr6G5kByo4Wem-12">
          <mxGeometry relative="1" as="geometry" />
        </mxCell>
        <mxCell id="_F2TY-6Kr6G5kByo4Wem-9" value="1" style="ellipse;whiteSpace=wrap;html=1;aspect=fixed;" vertex="1" parent="1">
          <mxGeometry x="200" y="200" width="40" height="40" as="geometry" />
        </mxCell>
        <mxCell id="_F2TY-6Kr6G5kByo4Wem-18" value="" style="edgeStyle=orthogonalEdgeStyle;rounded=0;orthogonalLoop=1;jettySize=auto;html=1;" edge="1" parent="1" source="_F2TY-6Kr6G5kByo4Wem-10" target="_F2TY-6Kr6G5kByo4Wem-11">
          <mxGeometry relative="1" as="geometry" />
        </mxCell>
        <mxCell id="_F2TY-6Kr6G5kByo4Wem-10" value="6" style="ellipse;whiteSpace=wrap;html=1;aspect=fixed;" vertex="1" parent="1">
          <mxGeometry x="120" y="280" width="40" height="40" as="geometry" />
        </mxCell>
        <mxCell id="_F2TY-6Kr6G5kByo4Wem-19" value="" style="edgeStyle=orthogonalEdgeStyle;rounded=0;orthogonalLoop=1;jettySize=auto;html=1;" edge="1" parent="1" source="_F2TY-6Kr6G5kByo4Wem-11" target="_F2TY-6Kr6G5kByo4Wem-12">
          <mxGeometry relative="1" as="geometry" />
        </mxCell>
        <mxCell id="_F2TY-6Kr6G5kByo4Wem-11" value="1" style="ellipse;whiteSpace=wrap;html=1;aspect=fixed;" vertex="1" parent="1">
          <mxGeometry x="200" y="280" width="40" height="40" as="geometry" />
        </mxCell>
        <mxCell id="_F2TY-6Kr6G5kByo4Wem-22" value="" style="edgeStyle=orthogonalEdgeStyle;rounded=0;orthogonalLoop=1;jettySize=auto;html=1;" edge="1" parent="1" source="_F2TY-6Kr6G5kByo4Wem-12" target="_F2TY-6Kr6G5kByo4Wem-14">
          <mxGeometry relative="1" as="geometry" />
        </mxCell>
        <mxCell id="_F2TY-6Kr6G5kByo4Wem-12" value="8" style="ellipse;whiteSpace=wrap;html=1;aspect=fixed;" vertex="1" parent="1">
          <mxGeometry x="280" y="240" width="40" height="40" as="geometry" />
        </mxCell>
        <mxCell id="_F2TY-6Kr6G5kByo4Wem-23" value="" style="edgeStyle=orthogonalEdgeStyle;rounded=0;orthogonalLoop=1;jettySize=auto;html=1;" edge="1" parent="1" source="_F2TY-6Kr6G5kByo4Wem-14" target="_F2TY-6Kr6G5kByo4Wem-15">
          <mxGeometry relative="1" as="geometry" />
        </mxCell>
        <mxCell id="_F2TY-6Kr6G5kByo4Wem-14" value="4" style="ellipse;whiteSpace=wrap;html=1;aspect=fixed;" vertex="1" parent="1">
          <mxGeometry x="360" y="240" width="40" height="40" as="geometry" />
        </mxCell>
        <mxCell id="_F2TY-6Kr6G5kByo4Wem-15" value="5" style="ellipse;whiteSpace=wrap;html=1;aspect=fixed;" vertex="1" parent="1">
          <mxGeometry x="440" y="240" width="40" height="40" as="geometry" />
        </mxCell>
        <mxCell id="_F2TY-6Kr6G5kByo4Wem-25" value="headA" style="text;html=1;align=center;verticalAlign=middle;resizable=0;points=[];autosize=1;strokeColor=none;fillColor=none;" vertex="1" parent="1">
          <mxGeometry x="50" y="198" width="60" height="30" as="geometry" />
        </mxCell>
        <mxCell id="_F2TY-6Kr6G5kByo4Wem-26" value="headB" style="text;html=1;align=center;verticalAlign=middle;resizable=0;points=[];autosize=1;strokeColor=none;fillColor=none;" vertex="1" parent="1">
          <mxGeometry x="-39" y="290" width="60" height="30" as="geometry" />
        </mxCell>
        <mxCell id="_F2TY-6Kr6G5kByo4Wem-27" value="链表a到相交处的长度为a，链表b到相交处为b,共同长度为c，&lt;div&gt;两个链表同时开始遍历，当两个链表都走过a+b+c长度的时候，肯定会在相交处相遇&lt;/div&gt;" style="text;html=1;align=center;verticalAlign=middle;resizable=0;points=[];autosize=1;strokeColor=none;fillColor=none;" vertex="1" parent="1">
          <mxGeometry x="20" y="383" width="460" height="40" as="geometry" />
        </mxCell>
      </root>
    </mxGraphModel>
  </diagram>
</mxfile>
